<!DOCTYPE svg PUBLIC "-//W3C//DTD SVG 1.1//EN" "http://www.w3.org/Graphics/SVG/1.1/DTD/svg11.dtd">
<!-- Uploaded to: SVG Repo, www.svgrepo.com, Transformed by: SVG Repo Mixer Tools -->
<svg fill="#ffffff" height="64px" width="64px" version="1.1" id="Layer_1" xmlns="http://www.w3.org/2000/svg" xmlns:xlink="http://www.w3.org/1999/xlink" viewBox="0 0 512 512" xml:space="preserve">
<g id="SVGRepo_bgCarrier" stroke-width="0"/>
<g id="SVGRepo_tracerCarrier" stroke-linecap="round" stroke-linejoin="round"/>
<g id="SVGRepo_iconCarrier"> <g transform="translate(-1)"> <g> <g> <path d="M146.1,285.9c0,61.2,49.8,110.9,110.9,110.9S367.9,347,367.9,285.9s-49.7-111-110.9-111S146.1,224.7,146.1,285.9z M265.5,226.1c0,4.7-3.8,8.5-8.5,8.5c-28.2,0-51.2,23-51.2,51.2c0,4.7-3.8,8.5-8.5,8.5c-4.7,0-8.5-3.8-8.5-8.5 c0-37.6,30.6-68.3,68.3-68.3C261.7,217.6,265.5,221.4,265.5,226.1z"/> <path d="M118.1,285.9c0-14.4,2.1-28.7,6.2-42.7H1v119.5h137.8C125.2,339.3,118.1,313.1,118.1,285.9z M43.7,277.3 c-4.7,0-8.5-3.8-8.5-8.5s3.8-8.5,8.5-8.5s8.5,3.8,8.5,8.5S48.4,277.3,43.7,277.3z M77.8,277.3c-4.7,0-8.5-3.8-8.5-8.5 s3.8-8.5,8.5-8.5c4.7,0,8.5,3.8,8.5,8.5S82.5,277.3,77.8,277.3z"/> <path d="M165.2,185.2c-0.4-0.5-0.7-1.2-0.8-1.8c-0.2,0-0.5,0.1-0.7,0.1H1v42.7h133.4C141.9,210.8,152.3,196.9,165.2,185.2z"/> <path d="M478,183.5c-4,19.4-21.2,34.1-41.8,34.1s-37.8-14.7-41.8-34.1h-44c-0.4,0-0.9-0.2-1.3-0.2c-0.1,0.6-0.3,1.1-0.7,1.5 c13.1,11.9,23.7,25.9,31.3,41.4H513v-42.7H478z"/> <path d="M356.5,379.1c-21.6,23-51.1,38.7-83.8,42.4c-4.8,0.5-9.5,0.8-14.2,0.9h-3.4c-33.1-0.4-64.2-12.4-89.2-34.8 c-3-2.7-5.8-5.5-8.5-8.5c-0.9,0.3-1.9,0.6-2.9,0.6H1v31c0,15.8,12.9,28.7,28.7,28.7h224.9c0.7,0,1.4,0,2.1,0s1.4,0,2.1,0h225.4 c15.8,0,28.7-12.9,28.7-28.7v-31H359.4C358.4,379.7,357.4,379.5,356.5,379.1z"/> <path d="M395.9,285.9c0,27.2-7.1,53.5-20.7,76.8H513V243.2H389.7C393.8,257.2,395.9,271.5,395.9,285.9z"/> <path d="M257.1,132.3c35.1,0,69.2,12.1,96.5,34.1h40.9c4-19.4,21.2-34.1,41.8-34.1S474,147,478,166.4h34.4 c-4.2-33.6-32.9-59.7-67.7-59.7h-34.1c0-4.7-3.8-8.5-8.5-8.5s-8.5,3.8-8.5,8.5h-17.1c0-4.7-3.8-8.5-8.5-8.5s-8.5,3.8-8.5,8.5 H163.1V81.1c0-4.7-3.8-8.5-8.5-8.5H86.3c-4.7,0-8.5,3.8-8.5,8.5v25.6h-8.5c-34.7,0-63.5,26.1-67.7,59.7h159 C187.9,144.4,222,132.3,257.1,132.3z M146.1,106.7H94.9V89.6h51.2V106.7z"/> <path d="M410.6,174.9c0,14.1,11.5,25.6,25.6,25.6c14.1,0,25.6-11.5,25.6-25.6c0-14.1-11.5-25.6-25.6-25.6 C422.1,149.3,410.6,160.8,410.6,174.9z"/> </g> </g> </g> </g>
</svg>