<?xml version="1.0" standalone="no"?>
<!DOCTYPE svg PUBLIC "-//W3C//DTD SVG 20010904//EN"
 "http://www.w3.org/TR/2001/REC-SVG-20010904/DTD/svg10.dtd">
<svg version="1.0" xmlns="http://www.w3.org/2000/svg"
 width="2000.000000pt" height="1500.000000pt" viewBox="0 0 2000.000000 1500.000000"
 preserveAspectRatio="xMidYMid meet">

<g transform="translate(0.000000,1500.000000) scale(0.100000,-0.100000)"
fill="#000000" stroke="none">
<path d="M9720 12489 c-311 -28 -653 -114 -950 -241 -947 -404 -1648 -1281
-1834 -2298 -65 -353 -63 -812 5 -1155 154 -773 569 -1434 1196 -1904 933
-699 2180 -817 3228 -306 753 368 1337 1037 1594 1829 108 332 152 613 152
976 -1 515 -106 957 -337 1410 -533 1050 -1616 1708 -2794 1699 -91 -1 -208
-6 -260 -10z m626 -234 c644 -78 1235 -365 1694 -825 456 -456 728 -1005 827
-1665 27 -183 24 -601 -5 -790 -121 -777 -513 -1437 -1127 -1900 -505 -380
-1097 -576 -1735 -576 -454 0 -845 88 -1247 281 -535 257 -955 646 -1258 1166
-402 689 -495 1551 -249 2316 145 450 380 834 714 1168 628 629 1503 931 2386
825z"/>
<path d="M8462 10764 c-103 -27 -172 -81 -223 -176 l-34 -63 -3 -1090 c-1
-599 0 -1100 3 -1112 4 -17 13 -23 32 -23 21 0 76 49 277 250 l252 250 1179 2
1180 3 67 33 c77 38 130 92 167 171 l26 56 0 725 0 725 -22 48 c-32 68 -75
120 -131 155 -100 65 -37 62 -1442 61 -1068 0 -1284 -3 -1328 -15z"/>
<path d="M11510 9998 l0 -55 45 -17 c52 -20 110 -83 125 -135 6 -23 10 -342
10 -846 l0 -810 -183 183 -182 182 -930 0 c-878 0 -932 1 -970 19 -48 21 -98
76 -116 125 -13 35 -14 36 -66 36 -62 0 -63 -3 -32 -85 25 -67 94 -141 164
-175 l50 -25 925 -3 924 -2 197 -195 c139 -138 203 -195 220 -196 48 -2 64 3
87 27 l22 26 -2 881 -3 882 -28 53 c-48 92 -134 160 -225 178 l-32 7 0 -55z"/>
<path d="M3693 5035 c-417 -76 -761 -390 -903 -826 -48 -147 -64 -247 -63
-414 0 -115 5 -174 22 -255 87 -412 352 -768 696 -936 297 -144 667 -136 991
21 129 63 248 147 322 231 51 56 142 197 142 219 0 8 -214 130 -250 143 -5 2
-18 -14 -29 -35 -87 -171 -279 -316 -496 -374 -106 -29 -299 -31 -395 -6 -146
39 -284 122 -396 238 -258 268 -354 661 -253 1045 75 287 268 524 508 625 148
62 379 76 541 34 196 -52 353 -170 449 -339 21 -35 37 -54 44 -49 86 51 227
147 227 156 0 5 -12 31 -27 56 -137 237 -399 417 -678 466 -107 18 -350 19
-452 0z"/>
<path d="M5310 3780 l0 -1260 160 0 160 0 0 575 0 575 695 0 695 0 0 -575 0
-575 160 0 160 0 0 1260 0 1260 -160 0 -160 0 0 -545 0 -545 -695 0 -695 0 0
545 0 545 -160 0 -160 0 0 -1260z"/>
<path d="M8202 3788 c-282 -689 -512 -1256 -512 -1260 0 -5 74 -8 164 -8 l164
0 148 370 148 370 532 0 532 0 86 -212 c47 -117 114 -283 148 -368 l63 -155
168 -3 c92 -1 167 -1 167 0 0 2 -231 568 -513 1258 l-512 1255 -135 3 -135 2
-513 -1252z m876 309 c122 -314 222 -578 222 -584 0 -10 -99 -13 -460 -13
-253 0 -460 3 -460 7 0 14 464 1163 470 1163 3 0 105 -258 228 -573z"/>
<path d="M9880 4900 l0 -140 435 0 435 0 0 -1120 0 -1120 155 0 155 0 0 1120
0 1120 435 0 435 0 0 140 0 140 -1025 0 -1025 0 0 -140z"/>
<path d="M12300 3780 l0 -1260 160 0 160 0 0 1260 0 1260 -160 0 -160 0 0
-1260z"/>
<path d="M13230 3780 l0 -1260 155 0 155 0 0 565 0 565 570 0 570 0 0 130 0
130 -570 0 -570 0 0 425 0 425 675 0 675 0 0 140 0 140 -830 0 -830 0 0 -1260z"/>
<path d="M15068 5008 c11 -18 225 -376 476 -795 l456 -762 0 -465 0 -466 160
0 160 0 0 462 0 462 473 789 c259 434 474 794 475 798 2 5 -73 9 -166 9 l-169
0 -384 -655 c-211 -360 -386 -655 -389 -655 -3 0 -176 295 -385 655 l-380 655
-173 0 -174 0 20 -32z"/>
</g>
</svg>
