<!DOCTYPE svg PUBLIC "-//W3C//DTD SVG 1.1//EN" "http://www.w3.org/Graphics/SVG/1.1/DTD/svg11.dtd">
<!-- Uploaded to: SVG Repo, www.svgrepo.com, Transformed by: SVG Repo Mixer Tools -->
<svg width="64px" height="64px" viewBox="0 0 20 20" xmlns="http://www.w3.org/2000/svg" fill="#000000">
<g id="SVGRepo_bgCarrier" stroke-width="0"/>
<g id="SVGRepo_tracerCarrier" stroke-linecap="round" stroke-linejoin="round" stroke="#CCCCCC" stroke-width="0.9200000000000002"/>
<g id="SVGRepo_iconCarrier">
<path d="M7.519 2.395a8 8 0 0 1 5.12.053 1 1 0 0 0 .66-1.888 10 10 0 1 0 6.568 7.812 1 1 0 1 0-1.974.326A8 8 0 1 1 7.52 2.395Z" fill="#51ff00"/>
<path d="M17.847 4.74a1.125 1.125 0 0 0-1.694-1.48l-6.208 7.094-2.15-2.15a1.125 1.125 0 0 0-1.59 1.591l3 3a1.125 1.125 0 0 0 1.642-.054l7-8Z" fill="#51ff00"/>
</g>
</svg>